<svg fill="none" xmlns="http://www.w3.org/2000/svg" viewBox="0 0 100 100"><path fill="#fff" d="M0 0h100v100H0z"/><path d="M28.7 80.3 25 77.4V20.6L59.5 10l3.7 2.8-34.4 10.6-.1 56.9Zm14-4.3v-3.7L58.4 67V29.8l3.8-1.2V70l-19.5 6Z" fill="#000"/><path d="m35 85.2-3.6-2.9V25.5l34.5-10.6 3.7 2.8-34.5 10.6v56.9Zm7.7-6.2v3.8l25.9-8v-48l-4 1.2v44l-22 7Z" fill="#000"/><path fill-rule="evenodd" clip-rule="evenodd" d="M37.7 30.1v57.3l3.7 2.6L75 79.7V21.9l-3-2.3-34.3 10.5Zm4 55.8V33l29.4-9v52.7l-29.5 9Z" fill="#000"/></svg>