<svg xmlns="http://www.w3.org/2000/svg" width="34" height="30" fill="none" viewBox="0 0 34 30"><path fill="#000" fill-rule="evenodd" d="M29.5467 2.97516C30.4586 2.7418 30.54 2.01718 29.7862 1.36471C29.0309 0.772112 27.7674 0.419011 26.8616 0.55104C25.9236 0.735267 25.6995 1.43072 26.4225 2.11697C27.1487 2.86309 28.5719 3.24996 29.5467 2.97516Z" clip-rule="evenodd"/><path fill="#000" fill-rule="evenodd" d="M23.6821 5.85823C24.3745 6.7763 25.8591 7.13861 26.9445 6.65808C27.9823 6.20366 28.2203 5.14435 27.5002 4.29384C26.8063 3.49706 25.4262 3.16238 24.3899 3.53851C23.3321 3.95302 23.0082 4.98469 23.6821 5.85823Z" clip-rule="evenodd"/><path fill="#000" fill-rule="evenodd" d="M24.4098 8.85491C23.7435 7.91688 22.3465 7.59756 21.2626 8.13335C20.1695 8.6891 19.7735 9.92956 20.4213 10.9075C21.0753 11.9207 22.5261 12.2631 23.6484 11.6644C24.7553 11.0887 25.0761 9.8221 24.4098 8.85337V8.85491Z" clip-rule="evenodd"/><path fill="#000" fill-rule="evenodd" d="M12.7654 17.7225C13.7894 17.0915 14.1624 15.7789 13.6067 14.8025C13.0617 13.8522 11.8258 13.602 10.8433 14.2191C9.87455 14.8455 9.49381 16.1151 9.9989 17.07C10.5209 18.0434 11.7613 18.3458 12.7669 17.7225H12.7654Z" clip-rule="evenodd"/><path fill="#000" fill-rule="evenodd" d="M9.99417 21.026C9.49215 20.0987 8.39907 19.8177 7.56544 20.3766C6.75638 20.9246 6.48772 22.0975 6.95596 23.0279C7.44263 23.9582 8.50961 24.276 9.35398 23.7464C10.2183 23.1937 10.51 21.9686 9.99417 21.026Z" clip-rule="evenodd"/><path fill="#000" fill-rule="evenodd" d="M16.4806 11.8089C17.6013 11.1779 18.0143 9.8945 17.4094 8.96108C16.8168 8.07219 15.4827 7.84958 14.4219 8.44525C13.3441 9.06394 12.9066 10.289 13.4362 11.2179C13.9997 12.1758 15.363 12.4537 16.4821 11.8089H16.4806Z" clip-rule="evenodd"/><path fill="#000" fill-rule="evenodd" d="M2.28132 20.584C1.68872 21.106 1.49528 22.1669 1.83457 23.0266C2.19534 23.8756 2.99366 24.1949 3.62771 23.6975C4.30013 23.1955 4.52581 22.0502 4.12051 21.169C3.73824 20.3123 2.90769 20.059 2.28285 20.584H2.28132Z" clip-rule="evenodd"/><path fill="#000" fill-rule="evenodd" d="M17.1729 2.68044C18.3105 2.19224 18.7527 1.34173 18.1893 0.813611C17.678 0.359185 16.4422 0.346903 15.3721 0.762948C14.3251 1.20816 13.777 1.97731 14.1961 2.51157C14.669 3.11645 16.0123 3.20702 17.1729 2.67891V2.68044Z" clip-rule="evenodd"/><path fill="#000" fill-rule="evenodd" d="M10.6867 6.70885C11.1135 7.49796 12.3924 7.63613 13.5116 6.99287C14.6323 6.37264 15.1174 5.24425 14.6046 4.50888C14.118 3.83645 12.9067 3.77351 11.8566 4.34921C10.8188 4.94335 10.2768 5.9919 10.6883 6.71039L10.6867 6.70885Z" clip-rule="evenodd"/><path fill="#000" fill-rule="evenodd" d="M7.6592 7.90773C8.66477 7.22916 9.19903 6.13301 8.86742 5.5005C8.58955 4.92479 7.64231 5.00462 6.74267 5.63406C5.87067 6.28193 5.29956 7.27522 5.4884 7.8847C5.71561 8.5602 6.70276 8.57862 7.65767 7.90773H7.6592Z" clip-rule="evenodd"/><path fill="#000" fill-rule="evenodd" d="M4.28486 13.0416C5.12155 12.383 5.5683 11.1871 5.27047 10.4256C5.01255 9.70557 4.19428 9.67947 3.42053 10.3488C2.69897 11.0013 2.25529 12.0974 2.43031 12.8328C2.64677 13.6035 3.47733 13.7171 4.28486 13.0416Z" clip-rule="evenodd"/><path fill="#000" fill-rule="evenodd" d="M23.4426 2.49158C24.5311 2.12466 24.7982 1.31713 24.1319 0.715327C23.4656 0.179534 22.1407 -0.00776322 21.106 0.271647C20.0329 0.600185 19.6399 1.34937 20.2417 1.9696C20.8696 2.66045 22.3388 2.90456 23.4426 2.49158Z" clip-rule="evenodd"/><path fill="#000" fill-rule="evenodd" d="M9.81317 12.2786C10.8387 11.6199 11.2839 10.3595 10.8157 9.4952C10.3705 8.67693 9.23285 8.55871 8.26873 9.19737C7.3215 9.85751 6.86861 11.0274 7.24474 11.864C7.6485 12.7514 8.8076 12.9418 9.81163 12.2801L9.81317 12.2786Z" clip-rule="evenodd"/><path fill="#000" fill-rule="evenodd" d="M16.9612 6.01792C17.5507 6.88532 19.0046 7.13864 20.1545 6.566C21.2951 6.01946 21.6728 4.90642 21.0265 4.10043C20.3986 3.34663 19.0307 3.15012 17.9468 3.63219C16.8307 4.15109 16.384 5.20579 16.9612 6.01792Z" clip-rule="evenodd"/><path fill="#000" fill-rule="evenodd" d="M4.96645 14.807C4.17888 15.4303 3.83959 16.6001 4.19423 17.4768C4.57804 18.381 5.56825 18.6343 6.40956 18.0248C7.28156 17.4107 7.63927 16.1503 7.19713 15.2522C6.78569 14.3725 5.78472 14.1868 4.96645 14.807Z" clip-rule="evenodd"/><path fill="#000" fill-rule="evenodd" d="M11.3268 3.52475C12.4122 2.93983 12.9833 2.07857 12.6225 1.64717C12.3139 1.29407 11.2838 1.46909 10.3105 1.98492C9.35556 2.533 8.7123 3.28986 8.91495 3.70591C9.15444 4.20946 10.2598 4.13884 11.3268 3.52475Z" clip-rule="evenodd"/><path fill="#000" fill-rule="evenodd" d="M2.17392 15.888C1.93289 15.1143 1.2666 14.9914 0.689357 15.5917C0.1551 16.1843 -0.122776 17.2467 0.0522398 18.0174C0.25796 18.8172 0.904289 19.0229 1.49842 18.461C2.14168 17.8608 2.44565 16.6986 2.17392 15.888Z" clip-rule="evenodd"/><path fill="#000" fill-rule="evenodd" d="M33.4 5.08903C32.6754 4.27229 31.4288 3.81479 30.5752 4.07271C29.6617 4.36594 29.4775 5.33159 30.2098 6.2343C30.939 7.17386 32.2962 7.63289 33.202 7.2583C34.0417 6.91134 34.1123 5.94415 33.4 5.08903Z" clip-rule="evenodd"/><path fill="#000" fill-rule="evenodd" d="M17.7503 13.8798C16.6971 14.4862 16.3133 15.7927 16.9166 16.8014C17.5277 17.8253 18.8971 18.16 19.9733 17.5398C21.0525 16.9226 21.4118 15.5947 20.7823 14.5845C20.1606 13.5912 18.8111 13.2796 17.7503 13.8798Z" clip-rule="evenodd"/><path fill="#000" fill-rule="evenodd" d="M4.9219 26.318C4.30781 26.7417 4.17425 27.7273 4.61179 28.5487C5.057 29.3547 5.93208 29.7093 6.57227 29.3132C7.24623 28.9079 7.41357 27.8793 6.93612 27.0319C6.47401 26.1906 5.56363 25.8743 4.9219 26.318Z" clip-rule="evenodd"/><path fill="#000" fill-rule="evenodd" d="M28.151 8.2807C27.1362 8.75969 26.8399 9.9587 27.5277 10.9658C28.217 11.9975 29.611 12.3982 30.6227 11.867C31.6053 11.3604 31.8248 10.1614 31.1478 9.18495C30.4646 8.23465 29.1382 7.82935 28.1525 8.2807H28.151Z" clip-rule="evenodd"/><path fill="#000" fill-rule="evenodd" d="M14.193 20.2092C13.2396 20.7926 12.9234 22.0346 13.4822 22.9987C14.0487 23.9705 15.2907 24.3006 16.2563 23.731C17.2343 23.1553 17.5613 21.8903 16.9794 20.9154C16.4083 19.9421 15.1571 19.6366 14.193 20.2092Z" clip-rule="evenodd"/><path fill="#000" fill-rule="evenodd" d="M10.9384 26.5235C10.1462 27.0025 9.9267 28.0633 10.4395 28.923C10.9645 29.7797 12.0284 30.1052 12.8359 29.6538C13.6634 29.1932 13.9106 28.1001 13.3809 27.2312C12.8498 26.3469 11.7536 26.0383 10.9384 26.5235Z" clip-rule="evenodd"/><path fill="#000" fill-rule="evenodd" d="M25.0331 13.8015C23.9861 14.3757 23.6437 15.676 24.2839 16.7062C24.9272 17.7486 26.3012 18.1048 27.3467 17.5091C28.3738 16.9226 28.6793 15.6223 28.0437 14.606C27.4097 13.605 26.0633 13.2412 25.0347 13.8L25.0331 13.8015Z" clip-rule="evenodd"/></svg>