<?xml version="1.0" encoding="UTF-8"?>
<svg width="36px" height="36px" viewBox="0 0 36 36" version="1.1" xmlns="http://www.w3.org/2000/svg" xmlns:xlink="http://www.w3.org/1999/xlink">
    <title>Artboard</title>
    <g id="Artboard" stroke="none" stroke-width="1" fill="none" fill-rule="evenodd">
        <g id="twitter" fill="#1DA1F2" fill-rule="nonzero">
            <path d="M36,18 C36,27.945 27.945,36 18,36 C8.055,36 0,27.945 0,18 C0,8.055 8.055,0 18,0 C27.945,0 36,8.055 36,18 Z M14.706,27.495 C22.689,27.495 27.054,20.88 27.054,15.147 C27.054,14.958 27.054,14.769 27.045,14.589 C27.891,13.977 28.629,13.212 29.214,12.339 C28.44,12.681 27.603,12.915 26.721,13.023 C27.621,12.483 28.305,11.637 28.629,10.62 C27.792,11.115 26.865,11.475 25.875,11.673 C25.083,10.827 23.958,10.305 22.707,10.305 C20.313,10.305 18.369,12.249 18.369,14.643 C18.369,14.985 18.405,15.318 18.486,15.633 C14.877,15.453 11.682,13.725 9.54,11.097 C9.171,11.736 8.955,12.483 8.955,13.275 C8.955,14.778 9.72,16.11 10.89,16.884 C10.179,16.866 9.513,16.668 8.928,16.344 C8.928,16.362 8.928,16.38 8.928,16.398 C8.928,18.504 10.422,20.25 12.411,20.655 C12.051,20.754 11.664,20.808 11.268,20.808 C10.989,20.808 10.719,20.781 10.449,20.727 C10.998,22.455 12.6,23.706 14.499,23.742 C13.014,24.903 11.142,25.596 9.108,25.596 C8.757,25.596 8.415,25.578 8.073,25.533 C9.972,26.775 12.258,27.495 14.706,27.495 Z" id="Shape"></path>
        </g>
    </g>
</svg>