<?xml version="1.0" encoding="UTF-8"?>
<svg width="23px" height="23px" viewBox="0 0 23 23" version="1.1" xmlns="http://www.w3.org/2000/svg" xmlns:xlink="http://www.w3.org/1999/xlink">
    <title>Artboard</title>
    <g id="Artboard" stroke="none" stroke-width="1" fill="none" fill-rule="evenodd">
        <g id="twitter" transform="translate(1.073000, 3.305000)" fill="#1DA1F2" fill-rule="nonzero">
            <path d="M6.633,17.19 C14.616,17.19 18.981,10.575 18.981,4.842 C18.981,4.653 18.981,4.464 18.972,4.284 C19.818,3.672 20.556,2.907 21.141,2.034 C20.367,2.376 19.53,2.61 18.648,2.718 C19.548,2.178 20.232,1.332 20.556,0.315 C19.719,0.81 18.792,1.17 17.802,1.368 C17.01,0.522 15.885,0 14.634,0 C12.24,0 10.296,1.944 10.296,4.338 C10.296,4.68 10.332,5.013 10.413,5.328 C6.804,5.148 3.609,3.42 1.467,0.792 C1.098,1.431 0.882,2.178 0.882,2.97 C0.882,4.473 1.647,5.805 2.817,6.579 C2.106,6.561 1.44,6.363 0.855,6.039 C0.855,6.057 0.855,6.075 0.855,6.093 C0.855,8.199 2.349,9.945 4.338,10.35 C3.978,10.449 3.591,10.503 3.195,10.503 C2.916,10.503 2.646,10.476 2.376,10.422 C2.925,12.15 4.527,13.401 6.426,13.437 C4.941,14.598 3.069,15.291 1.035,15.291 C0.684,15.291 0.342,15.273 0,15.228 C1.899,16.47 4.185,17.19 6.633,17.19 Z" id="Shape"></path>
        </g>
    </g>
</svg>