<?xml version="1.0" standalone="no"?>
<!DOCTYPE svg PUBLIC "-//W3C//DTD SVG 20010904//EN"
 "http://www.w3.org/TR/2001/REC-SVG-20010904/DTD/svg10.dtd">
<svg version="1.0" xmlns="http://www.w3.org/2000/svg"
 width="1088.000000pt" height="1088.000000pt" viewBox="0 0 1088.000000 1088.000000"
 preserveAspectRatio="xMidYMid meet">
<metadata>
Created by potrace 1.14, written by Peter Selinger 2001-2017
</metadata>
<g transform="translate(0.000000,1088.000000) scale(0.100000,-0.100000)"
fill="#000000" stroke="none">
<path d="M7007 10194 c-1 -1 -27 -4 -57 -7 -109 -10 -152 -19 -215 -43 -26
-10 -25 -9 -60 -19 -38 -10 -153 -84 -199 -127 -94 -89 -113 -219 -48 -323 25
-41 104 -125 116 -125 4 0 15 -8 26 -18 22 -20 141 -81 170 -87 10 -2 28 -9
39 -15 12 -6 21 -8 21 -5 0 3 9 1 20 -5 10 -6 32 -12 47 -14 15 -3 39 -7 53
-10 14 -3 45 -7 70 -10 25 -2 50 -5 55 -6 6 -1 12 -2 15 -1 3 0 57 3 120 6
118 5 153 8 188 19 11 4 31 9 43 11 38 7 123 37 134 46 5 5 15 9 21 9 22 0
127 66 170 107 120 112 132 264 30 388 -36 44 -169 135 -197 135 -8 0 -19 4
-25 9 -9 8 -74 30 -139 46 -87 23 -204 37 -323 39 -40 1 -74 1 -75 0z"/>
<path d="M5408 10095 c-2 -1 -41 -5 -88 -9 -47 -3 -96 -8 -110 -11 -14 -3 -38
-8 -55 -10 -16 -3 -38 -8 -47 -11 -9 -3 -27 -7 -40 -10 -27 -6 -38 -9 -58 -16
-8 -3 -37 -14 -65 -23 -51 -18 -191 -90 -211 -109 -6 -6 -22 -18 -35 -26 -43
-27 -136 -127 -162 -174 -48 -85 -51 -151 -12 -229 16 -31 31 -55 33 -52 2 2
18 -10 35 -27 45 -42 167 -94 247 -105 50 -6 268 -6 315 0 103 14 231 52 325
95 30 13 61 25 68 25 6 0 12 4 12 7 0 4 15 13 33 21 17 7 34 15 37 19 3 3 24
17 47 32 67 44 156 139 187 202 55 108 37 224 -45 296 -70 61 -168 94 -309
106 -36 3 -73 6 -82 8 -9 2 -18 3 -20 1z"/>
<path d="M8545 10051 c-79 -24 -112 -41 -158 -85 -108 -102 -88 -238 57 -389
71 -74 162 -140 263 -191 70 -35 207 -85 248 -91 11 -1 20 -3 20 -5 0 -2 40
-9 81 -14 17 -2 35 -5 40 -8 5 -2 23 -4 39 -3 17 1 38 -2 48 -7 10 -5 17 -5
17 1 0 7 8 7 24 1 13 -5 26 -6 30 -3 3 3 29 7 58 8 29 2 53 4 53 5 0 1 9 3 20
5 197 29 309 120 307 252 0 29 -7 66 -16 84 -9 18 -16 38 -16 46 0 7 -5 13
-10 13 -6 0 -14 9 -18 19 -9 25 -96 117 -124 132 -12 6 -27 16 -32 20 -63 52
-283 154 -379 175 -32 7 -51 12 -57 14 -3 1 -9 3 -15 4 -22 4 -91 19 -110 24
-11 2 -85 6 -165 7 -117 3 -157 0 -205 -14z"/>
<path d="M3748 9764 c-2 -1 -19 -6 -38 -9 -64 -11 -155 -37 -167 -47 -7 -6
-13 -8 -13 -5 0 12 -258 -105 -270 -122 -3 -4 -12 -10 -20 -13 -8 -3 -53 -34
-100 -68 -185 -137 -303 -296 -295 -397 5 -59 28 -92 86 -121 52 -26 90 -33
174 -32 59 0 76 2 145 16 19 3 40 7 45 8 59 11 205 72 300 124 33 18 68 35 78
39 9 3 17 9 17 14 0 5 5 9 12 9 17 0 156 107 213 164 50 50 142 176 129 176
-3 0 -2 6 4 13 5 6 13 27 17 45 21 97 -2 152 -78 188 -44 21 -65 24 -144 23
-51 -1 -94 -3 -95 -5z"/>
<path d="M6148 9165 c-2 -1 -37 -5 -78 -8 -41 -3 -99 -11 -128 -18 -30 -6 -59
-12 -65 -13 -31 -5 -167 -60 -167 -67 0 -5 -6 -9 -12 -9 -7 0 -47 -23 -88 -51
-211 -145 -307 -371 -240 -568 22 -67 66 -141 83 -141 6 0 7 -3 4 -7 -9 -8 58
-72 118 -113 39 -27 124 -71 148 -76 4 -1 8 -2 10 -4 1 -1 9 -3 17 -5 8 -2 40
-11 70 -19 30 -9 72 -17 93 -18 20 -1 37 -5 37 -10 0 -5 5 -6 11 -3 6 4 54 8
107 10 53 2 108 6 122 9 14 3 38 9 54 12 49 9 146 44 210 76 248 125 382 317
371 533 -6 135 -64 239 -185 336 -47 37 -166 99 -192 99 -8 0 -18 3 -22 8 -4
4 -11 7 -14 8 -4 0 -23 4 -42 8 -19 4 -44 9 -55 11 -11 2 -21 4 -22 5 -2 2
-11 3 -20 4 -10 1 -24 5 -30 9 -7 5 -13 4 -13 -1 0 -5 -17 -6 -40 -2 -22 4
-41 6 -42 5z"/>
<path d="M8017 9154 c-3 -2 -98 -16 -124 -18 -13 0 -23 -4 -23 -8 0 -5 -3 -7
-7 -6 -13 4 -86 -24 -136 -51 -117 -64 -201 -158 -238 -268 -19 -57 -20 -62
-20 -138 1 -135 60 -258 181 -375 66 -64 77 -73 116 -97 27 -18 173 -93 179
-93 14 1 62 -14 73 -23 6 -5 12 -7 12 -3 0 3 12 1 27 -5 25 -9 73 -16 164 -23
20 -2 41 -6 48 -10 6 -4 11 -4 11 1 0 4 27 8 61 8 76 0 216 34 292 72 93 45
97 47 97 55 0 5 5 8 11 8 24 0 119 113 150 178 74 150 43 340 -78 489 -26 32
-56 64 -66 72 -11 8 -27 22 -36 33 -8 10 -19 18 -24 18 -4 0 -15 6 -23 13 -8
6 -20 17 -27 22 -25 21 -175 90 -217 100 -8 3 -38 11 -67 19 -28 7 -54 11 -57
8 -3 -3 -6 -1 -6 5 0 5 -16 9 -35 8 -19 -1 -35 1 -35 4 0 5 -197 10 -203 5z"/>
<path d="M4227 8974 c-1 -1 -27 -4 -57 -7 -54 -6 -92 -12 -137 -22 -13 -3 -26
-6 -30 -6 -5 0 -14 -5 -20 -11 -7 -6 -13 -7 -13 -3 0 4 -6 3 -12 -2 -7 -6 -31
-16 -53 -23 -22 -7 -58 -24 -80 -38 -22 -14 -42 -25 -45 -25 -16 2 -126 -82
-191 -147 -70 -69 -149 -175 -149 -200 0 -5 -4 -10 -8 -10 -5 0 -9 -6 -10 -12
0 -7 -11 -40 -22 -73 -24 -66 -31 -139 -18 -200 9 -43 45 -122 65 -143 7 -7
16 -19 20 -26 22 -37 168 -126 207 -126 8 0 17 -4 21 -10 3 -5 12 -7 20 -4 8
3 20 2 27 -2 20 -13 196 -11 261 2 31 6 57 9 57 7 0 -3 6 -1 13 5 6 6 15 11
20 11 4 1 8 1 10 2 1 0 13 2 27 5 34 6 238 107 284 141 42 31 170 154 201 193
47 58 100 170 113 235 3 17 6 64 6 106 0 110 -37 196 -114 266 -31 29 -153 88
-200 98 -67 13 -185 25 -193 19z"/>
<path d="M9940 8963 c0 -4 -17 -8 -37 -7 -92 1 -214 -49 -279 -114 -111 -112
-130 -272 -52 -447 13 -27 25 -52 28 -55 3 -3 22 -30 42 -61 42 -62 182 -202
192 -192 3 3 6 1 6 -5 0 -23 249 -160 264 -145 3 4 6 2 6 -4 0 -5 6 -10 13
-11 14 -1 145 -32 167 -39 28 -10 245 -3 245 7 0 2 13 5 51 14 95 21 214 128
230 205 1 8 6 17 11 20 9 6 12 32 15 96 4 145 -68 302 -198 430 -102 101 -215
175 -344 227 -100 41 -101 41 -145 51 -62 15 -81 18 -137 22 -31 2 -62 6 -67
10 -6 3 -11 3 -11 -2z"/>
<path d="M2567 8604 c-1 -1 -20 -4 -42 -7 -53 -8 -142 -35 -180 -55 -16 -9
-35 -17 -41 -18 -6 -1 -29 -14 -52 -28 -23 -14 -46 -26 -51 -26 -5 0 -11 -3
-13 -7 -1 -5 -21 -21 -43 -38 -64 -47 -185 -159 -185 -170 0 -2 -11 -16 -25
-31 -73 -79 -188 -295 -171 -323 4 -5 1 -11 -5 -13 -11 -4 -16 -126 -5 -167
13 -56 68 -114 136 -144 47 -21 180 -28 245 -13 127 30 273 106 395 206 202
165 327 371 335 551 9 178 -83 277 -263 283 -18 1 -34 1 -35 0z"/>
<path d="M7186 7723 c-3 -4 -25 -6 -49 -5 -65 1 -165 -17 -242 -45 -38 -14
-78 -27 -87 -30 -10 -3 -18 -9 -18 -14 0 -5 -7 -9 -15 -9 -8 0 -15 -5 -15 -12
0 -6 -3 -9 -6 -5 -10 10 -72 -40 -145 -115 -69 -71 -146 -204 -154 -267 -2
-17 -8 -46 -13 -63 -14 -55 -5 -176 20 -258 12 -40 65 -145 88 -174 31 -40 85
-101 92 -104 3 -2 18 -14 33 -28 190 -176 555 -231 812 -124 107 45 195 102
254 165 121 131 174 250 180 410 4 117 -51 299 -112 363 -10 12 -19 24 -19 26
0 13 -119 121 -166 151 -105 67 -240 116 -364 130 -30 4 -58 9 -61 11 -3 2 -9
1 -13 -3z"/>
<path d="M4956 7643 c-1 -1 -22 -5 -47 -8 -182 -21 -372 -121 -497 -262 -61
-69 -62 -70 -84 -108 -35 -65 -48 -91 -63 -135 -1 -3 -5 -12 -9 -21 -4 -9 -9
-29 -11 -45 -2 -16 -4 -29 -5 -29 -5 0 -10 -49 -10 -95 1 -30 1 -62 1 -70 0
-16 18 -106 25 -130 3 -8 5 -17 5 -20 0 -3 7 -12 14 -20 7 -8 15 -22 17 -30 4
-18 68 -112 83 -122 5 -4 30 -25 55 -48 41 -37 163 -105 207 -115 10 -2 34 -9
53 -15 52 -17 255 -21 325 -6 53 12 84 22 208 68 15 5 27 15 27 21 0 6 3 8 6
4 11 -11 126 73 189 137 65 66 105 113 105 122 0 3 10 19 21 36 12 16 35 67
51 111 33 92 46 236 27 317 -6 25 -12 52 -14 61 -10 50 -88 172 -145 229 -58
57 -202 136 -267 146 -21 3 -42 9 -47 12 -14 8 -213 22 -220 15z"/>
<path d="M9170 7639 c-19 -4 -45 -10 -57 -13 -13 -3 -32 -8 -43 -10 -83 -19
-235 -135 -293 -224 -23 -35 -49 -90 -48 -99 0 -2 -7 -20 -16 -40 -19 -44 -27
-212 -13 -264 5 -19 11 -46 14 -60 6 -39 54 -136 98 -202 33 -49 126 -149 170
-182 118 -91 258 -150 408 -172 44 -6 225 -1 225 7 0 1 9 3 20 5 104 17 210
73 296 156 38 36 69 70 69 76 0 6 7 16 15 23 8 7 12 16 9 21 -3 5 -1 9 3 9 9
0 41 79 48 117 2 10 4 18 5 18 5 0 10 57 10 107 0 73 -8 135 -20 158 -5 9 -7
20 -4 22 8 9 -48 131 -89 192 -22 33 -65 84 -96 115 -60 61 -197 157 -237 167
-13 3 -24 10 -24 16 0 5 -4 7 -8 4 -5 -3 -20 1 -35 9 -15 8 -27 11 -27 8 0 -3
-7 0 -15 7 -8 7 -15 10 -15 7 0 -4 -18 0 -39 8 -22 7 -42 11 -44 8 -3 -3 -12
-1 -19 3 -16 11 -201 13 -248 3z"/>
<path d="M2923 7414 c-144 -30 -277 -104 -396 -220 -60 -58 -177 -214 -162
-214 4 0 -3 -13 -14 -29 -12 -16 -22 -37 -24 -47 -1 -11 -5 -23 -9 -29 -20
-33 -42 -160 -40 -240 2 -135 63 -270 154 -340 21 -16 45 -36 53 -43 8 -7 15
-11 15 -7 0 3 10 -1 23 -9 66 -41 206 -62 305 -45 83 14 101 19 151 39 27 10
52 16 55 13 3 -4 6 -1 6 5 0 7 7 12 15 12 8 0 15 5 15 11 0 5 5 7 10 4 6 -3
10 -1 10 4 0 6 5 11 12 11 17 0 155 107 196 152 20 23 43 48 51 55 7 8 36 51
63 96 54 90 93 197 102 284 2 17 7 36 10 42 4 6 3 11 -3 11 -6 0 -6 11 -1 29
4 16 6 32 4 34 -5 4 -7 13 -18 82 -24 152 -153 290 -316 336 -61 17 -192 18
-267 3z"/>
<path d="M1367 7078 c-1 -4 -11 -9 -22 -11 -11 -2 -33 -9 -48 -15 -16 -7 -32
-12 -36 -12 -35 0 -271 -197 -271 -226 0 -7 -6 -17 -13 -21 -33 -19 -159 -253
-171 -315 -2 -13 -9 -35 -15 -50 -6 -16 -9 -28 -6 -28 2 0 -1 -15 -6 -32 -17
-58 -13 -198 8 -256 41 -117 131 -184 247 -184 33 0 68 2 76 5 8 2 29 7 45 12
173 46 384 251 485 470 37 81 35 75 59 185 38 179 -2 353 -99 430 -22 18 -40
29 -40 25 0 -4 -6 -3 -12 3 -26 20 -175 37 -181 20z"/>
<path d="M8189 5889 c-78 -18 -191 -65 -197 -80 -2 -5 -9 -9 -16 -9 -13 0 -48
-27 -111 -85 -55 -51 -127 -158 -150 -221 -9 -27 -20 -56 -23 -64 -3 -8 -6
-24 -8 -35 -5 -34 -13 -80 -14 -85 -4 -10 1 -123 6 -158 3 -21 7 -45 8 -54 1
-10 5 -21 9 -24 4 -4 7 -14 7 -23 0 -45 97 -207 165 -277 92 -93 179 -148 300
-189 127 -42 231 -50 354 -27 42 8 84 15 94 15 9 1 17 5 17 9 0 4 8 8 18 8 10
0 23 5 30 12 7 7 12 8 12 3 0 -6 3 -6 8 0 4 6 29 22 57 37 58 31 173 127 174
146 1 6 5 12 9 12 22 0 112 185 127 260 13 67 12 216 -2 284 -18 89 -70 200
-128 277 -50 64 -160 161 -207 181 -15 7 -28 16 -28 20 0 5 -9 8 -19 8 -11 0
-22 4 -25 9 -5 7 -113 45 -167 57 -63 15 -227 11 -300 -7z"/>
<path d="M5978 5894 c-2 -1 -19 -4 -38 -7 -70 -10 -136 -30 -205 -63 -85 -41
-143 -74 -131 -74 5 0 -9 -13 -30 -28 -47 -34 -106 -104 -159 -187 -21 -33
-37 -60 -36 -60 1 0 -3 -13 -9 -30 -7 -16 -13 -37 -15 -45 -2 -8 -4 -15 -5
-15 -2 0 -6 -19 -18 -79 -12 -62 -8 -207 8 -266 15 -57 50 -141 66 -160 7 -8
14 -19 15 -25 11 -53 222 -245 269 -245 5 0 10 -4 10 -10 0 -5 3 -9 8 -8 4 1
21 -4 37 -11 113 -47 301 -66 410 -41 28 7 55 13 60 14 28 6 92 30 103 39 6 5
12 6 12 3 0 -4 12 1 28 11 15 10 39 25 53 32 14 7 45 29 69 49 134 113 208
226 248 377 21 79 29 239 13 249 -5 4 -8 13 -4 21 10 29 -61 211 -107 270 -42
56 -162 165 -211 193 -97 55 -230 93 -341 96 -54 1 -99 2 -100 0z"/>
<path d="M3705 5784 c-139 -29 -256 -94 -360 -200 -61 -62 -156 -200 -147
-212 2 -3 0 -8 -5 -11 -7 -5 -30 -71 -50 -144 -4 -12 -7 -76 -7 -142 -1 -92 4
-136 19 -187 11 -38 23 -68 27 -68 5 0 8 -6 8 -13 0 -37 153 -227 182 -227 4
0 13 -6 20 -12 39 -38 223 -106 254 -94 7 3 16 2 18 -3 5 -8 107 -6 171 2 81
11 235 76 281 118 11 10 24 19 30 19 5 0 40 33 77 73 79 85 99 107 92 107 -2
0 7 16 20 36 14 20 25 42 25 49 0 7 7 18 15 25 9 7 14 15 11 17 -2 3 2 19 9
37 25 59 39 144 39 236 0 86 -8 139 -31 198 -3 9 -7 19 -8 22 -29 107 -156
257 -264 314 -45 23 -126 53 -126 46 0 -2 -11 2 -24 9 -32 18 -201 21 -276 5z"/>
<path d="M1800 5603 c-250 -63 -453 -314 -495 -608 -3 -23 -7 -51 -10 -63 -2
-12 1 -22 7 -22 7 0 7 -4 0 -12 -16 -20 15 -212 39 -244 5 -6 7 -13 4 -16 -3
-3 1 -11 10 -18 8 -7 15 -18 15 -24 0 -6 20 -36 44 -67 107 -136 288 -194 456
-144 30 9 61 16 68 17 6 1 12 4 12 8 0 3 17 14 37 24 68 32 161 114 230 203
30 37 104 186 106 212 1 12 5 21 9 21 3 0 7 8 7 18 0 9 5 40 11 67 11 53 19
225 10 225 -3 0 -7 10 -8 23 -4 39 -8 56 -15 63 -4 4 -7 14 -7 21 0 33 -66
148 -114 197 -113 118 -259 159 -416 119z"/>
<path d="M375 5357 c-34 -11 -97 -53 -135 -88 -101 -95 -198 -299 -227 -474
-9 -57 -9 -241 0 -298 17 -104 84 -205 163 -245 51 -26 132 -24 189 5 78 39
95 50 88 56 -3 4 -1 7 5 7 10 0 72 57 72 66 0 3 11 17 25 32 30 32 125 219
125 245 0 10 5 28 12 40 6 12 12 33 14 47 1 14 3 25 4 25 6 0 11 52 14 137 7
214 -59 378 -177 439 -41 21 -117 24 -172 6z"/>
<path d="M4816 3863 c-2 -2 -22 -6 -44 -8 -64 -6 -161 -42 -227 -82 -72 -45
-87 -57 -134 -107 -20 -22 -44 -48 -53 -58 -10 -10 -16 -18 -13 -18 2 0 -7
-17 -21 -37 -13 -20 -27 -47 -30 -60 -4 -13 -9 -23 -13 -23 -10 0 -42 -113
-48 -165 -10 -102 -5 -194 16 -263 5 -18 11 -36 12 -40 15 -57 62 -141 117
-208 115 -141 273 -221 467 -238 11 -1 23 3 27 9 5 7 8 6 8 -1 0 -12 45 -10
124 6 67 14 172 57 226 93 61 40 170 154 195 203 11 21 22 41 25 44 8 8 37 72
45 100 27 93 37 210 23 299 -9 61 -48 184 -60 189 -5 2 -8 8 -8 13 0 17 -66
112 -107 154 -94 98 -230 171 -356 191 -49 8 -165 12 -171 7z"/>
<path d="M2625 3804 c-33 -5 -147 -44 -155 -54 -3 -3 -28 -20 -57 -38 -115
-73 -222 -244 -249 -397 -9 -53 -9 -211 0 -255 13 -66 28 -115 38 -127 6 -7 8
-13 4 -13 -4 0 5 -21 20 -47 68 -123 146 -202 251 -253 80 -40 114 -50 181
-55 29 -2 56 -7 61 -10 5 -3 12 -1 16 5 4 6 11 8 16 4 30 -18 199 43 274 100
50 38 115 103 115 115 0 5 4 11 9 13 24 9 87 142 112 238 18 68 19 231 2 308
-48 220 -214 400 -423 459 -23 7 -181 12 -215 7z"/>
<path d="M886 3733 c-3 -4 -15 -7 -25 -8 -61 -5 -231 -153 -231 -202 0 -7 -4
-13 -9 -13 -7 0 -46 -87 -44 -100 1 -3 -4 -14 -10 -25 -6 -11 -11 -31 -13 -45
-1 -14 -3 -25 -4 -25 -6 0 -11 -53 -14 -135 -3 -132 21 -248 75 -355 32 -63
41 -76 97 -131 174 -173 413 -139 561 80 34 51 73 126 65 126 -4 0 -2 6 4 13
30 36 51 235 38 352 -19 163 -131 363 -234 416 -15 8 -30 18 -33 22 -3 5 -12
9 -20 10 -8 2 -20 7 -28 11 -17 11 -165 18 -175 9z"/>
<path d="M1770 1881 c0 -3 -15 -6 -32 -7 -96 -2 -190 -58 -258 -154 -30 -41
-58 -101 -65 -135 -1 -5 -3 -12 -4 -15 -12 -24 -20 -239 -9 -255 3 -5 8 -23
11 -40 10 -53 49 -158 67 -175 3 -3 11 -17 19 -32 8 -16 18 -28 23 -28 4 0 8
-6 8 -13 0 -20 106 -118 162 -151 87 -50 142 -65 237 -63 71 2 96 7 141 30
194 96 279 335 211 592 0 3 -1 6 -2 8 0 1 -2 12 -5 24 -10 58 -92 191 -161
263 -40 41 -73 71 -73 66 0 -5 -8 -2 -17 6 -29 25 -98 57 -150 69 -57 13 -103
17 -103 10z"/>
<path d="M3696 1822 c-2 -2 -15 -5 -28 -7 -174 -25 -339 -177 -394 -364 -44
-152 -8 -365 82 -488 13 -17 24 -34 24 -36 0 -3 17 -22 38 -43 161 -165 374
-232 577 -180 19 5 50 18 101 42 47 22 174 130 174 147 0 4 10 21 21 37 12 16
34 65 49 110 23 66 28 98 28 177 0 53 -3 105 -8 117 -4 11 -14 41 -21 66 -22
76 -76 166 -141 234 -16 16 -28 32 -28 37 0 4 -8 10 -19 14 -10 3 -30 16 -43
28 -34 31 -126 74 -200 93 -57 15 -203 26 -212 16z"/>
</g>
</svg>
