<svg xmlns="http://www.w3.org/2000/svg" width="3385" height="649" viewBox="0 0 3385 649"><g><g><path fill="#6d7666" d="M689 3c30.45-.296 121.72-7.157 139 5 .331 24.68 5.088 83.741-5 98-30.45.296-121.72 7.157-139-5-.33-24.68-5.088-83.741 5-98zm620 0c30.45-.296 121.72-7.157 139 5v337c0 29.288 6.826 110.042-5 127-30.45.296-121.72 7.157-139-5V130c0-29.288-6.826-110.042 5-127zm417 0c30.45-.296 121.72-7.157 139 5v337c0 29.288 6.826 110.042-5 127-27.225.313-100.393 6.01-116-5l-6-27c-17.494 13.438-30.513 27.554-55 35-14.319 4.354-31.464 4.003-50 4-85.081-.014-122.745-52.834-138-123-29.501-135.694 41.922-274.304 185-235 15.676 4.306 28.872 12.2 41 20-.296-30.31-7.108-120.792 5-138zM4 12h134c16.504 0 43.756-3.466 55 3l82 121c9.467 13.62 27.608 26.506 28 48l-94 128c-5.588-.298-5.838-1.019-9-3l-47-67c-33.68-48.466-67.654-95.867-99-146C42.072 76.924 2.325 38.616 1 15l3-3zm444 0c34.54-.26 155.322-6.46 174 5-.126 22.878-25.428 41.918-36 57-27.897 39.8-56.016 78.834-84 118L177 648H52c-15.83 0-41.32 3.147-52-3 .43-19.687 21.903-35.742 31-49l90-126L448 12zm2457 113c21.117-.386 56.191-4.13 69 5 .33 24.823 5.14 84.665-5 99h-64c-.445 40.456-7.27 118.717 9 143 14.438 3.472 48.616.902 60 9 .368 24.911 6.168 72.247-5 88l-58 10c-21.641 3.328-51.681.588-69-3-71.94-14.904-80.001-43.88-80-130V229c-16.531.425-36.69 1.713-46-5-.33-24.823-5.14-84.665 5-99h47c3.852-25.027 17.033-81.588 30-99 25.956-.321 92.062-5.552 107 5v94zm-713-62c27.225-.313 100.393-6.01 116 5 .895 63.85-24.529 75.508-63 99l4 4c6.502 13.775 16.89 23.358 21 41 19.925 85.536-52.435 124.218-114 135-33.81 5.921-77.219-1.387-106 6l-2 4c24.373 20.74 114.857 1.498 156 8 20.899 3.303 40.017 5.903 55 15 51.603 31.33 68.085 119.581 25 174-44.472 56.17-140.717 47.992-242 48-47.846.004-94.231 3.156-121-17-49.473-37.25-45.29-118.368 8-148l-8-8c-26.054-56.492-16.116-94.775 34-121l-3-4c-31.139-14.764-47.155-74.688-29-117 15.727-36.653 54.466-54.043 97-64 25.357-5.936 64.222-10.833 95-6l31 3c25.124-7.233 32.114-37.749 46-57zM1016 330c1.158 61.006 97.185 69.513 104 15h140c.916 99.912-81.934 133.998-182 134-26.57 0-51.165.361-73-5-64.831-15.918-110.861-51.548-128-115l-5-44c-3.683-24.834-.705-56.103 5-77 15.956-58.45 57.506-96.09 115-113 94.541-27.808 196.961 3.864 237 58 20.986 28.375 30.997 63.948 31 114 0 11.149.945 24.172-3 31l-241 2zm1525-79c-.528-33.173-43.177-46.027-69-27-5.302 3.907-7.421 17.596-11 23-30.17.297-119.864 7.059-137-5-.252-24.816.864-44.901 10-60 44.895-74.198 237.483-89.381 314-30 18.77 14.566 31.182 35.286 36 64 7.862 46.849-12.202 120.87 5 158 11.613 1.495 29.378 1.5 37 7 .369 24.711 6.06 71.403-5 87-32.138 6.508-82.314 18.125-121 6-11.203-3.511-44.026-27.448-45-27-19.08 8.008-35.695 20.559-58 27-79.158 22.86-164.193-4.205-180-64-3.72-14.072-3.688-39.692-1-55 16.631-94.707 114.525-104.55 225-104zm600 79c1.158 61.006 97.185 69.513 104 15l140 1c.843 99.54-83.033 132.998-183 133-26.24 0-50.42.298-72-5-64.828-15.915-110.866-51.55-128-115l-5-44c-3.682-24.835-.704-56.102 5-77 15.954-58.448 57.507-96.092 115-113 94.544-27.804 196.959 3.86 237 58 20.986 28.375 30.997 63.948 31 114 0 12.592.718 24.807-4 32l-240 1zM689 125c30.45-.296 121.72-7.157 139 5v247c0 26.677 7.043 77.743-5 95-30.45.296-121.72 7.157-139-5V220c0-26.677-7.043-77.743 5-95zm1399 77c-12.597 5.305-23.974 6.329-29 19-14.541 36.66 33.634 52.512 60 36 30.037-18.81 4.515-56.39-31-55zm-1022 14c-23.241 8.922-42.277 8.05-47 35h95v-1c-7.236-21.71-19.382-34.008-48-34zm2125 0c-23.241 8.922-42.277 8.05-47 35h95v-1c-7.237-21.71-19.382-34.008-48-34zm-1521 13c-17.768 8.643-27.377 11.402-33 32-12.06 44.178-3.748 116.338 46 107 55.107-10.344 59.33-140.78-13-139zm871 101c-35.862-.908-73.2 6.027-83 32l6 14c39.257 13.505 78.26 1.085 77-46zM464 370c76.018-1.126 119.911 29.253 142 81 39.904 93.483-29.797 174.95-106 188-100.966 17.29-184.296-89.079-146-184 14.488-35.91 44.714-65.986 82-79l28-6zm1580 102c-6.4 2.997-11.832 4.486-17 8-2.584 7.469-4.705 16.79 1 23 5.246 11.24 105.423 16.118 124 8 6.684-2.92 11.218-10.114 13-18 6.79-30.058-92.12-21.558-121-21zm-1568 8l-14 8c-11.964 15.561-2.096 43.978 20 42 31.589-2.828 30.958-51.392-6-50z"/></g></g></svg>