<svg xmlns="http://www.w3.org/2000/svg" width="622" height="639" viewBox="0 0 622 639"><g><g><path fill="#6d7666" d="M4 2h134c16.504 0 43.756-3.467 55 3l82 121c9.467 13.62 27.608 26.505 28 48l-94 128c-5.588-.298-5.838-1.02-9-3l-47-67c-33.68-48.466-67.654-95.867-99-146C42.072 66.924 2.325 28.616 1 5l3-3zm444 0c34.54-.26 155.322-6.46 174 5-.126 22.878-25.428 41.918-36 57-27.897 39.8-56.016 78.834-84 118L177 638H52c-15.83 0-41.32 3.147-52-3 .43-19.687 21.903-35.742 31-49l90-126L448 2zm16 358c76.018-1.126 119.911 29.253 142 81 39.904 93.483-29.797 174.95-106 188-100.966 17.29-184.296-89.079-146-184 14.488-35.91 44.714-65.986 82-79l28-6zm12 110l-14 8c-11.964 15.561-2.096 43.978 20 42 31.589-2.828 30.958-51.392-6-50z"/></g></g></svg>