<svg xmlns="http://www.w3.org/2000/svg" width="211" height="35" fill="none"><path fill="#3999FB" fill-rule="evenodd" d="m76.216 18.83-2.898 10.428h-3.014l-4.04-15.262h3.31l2.4 11.052h.085l2.856-11.052h2.697l2.856 11.052h.084l2.412-11.052h3.31l-4.05 15.262h-3.015L76.311 18.83h-.095Zm14.458 8.376c1.343 0 2.453-.878 2.453-2.105v-.825l-2.39.148c-1.153.085-1.808.603-1.808 1.407 0 .846.698 1.375 1.745 1.375Zm-1.016 2.232c-2.157 0-3.796-1.397-3.796-3.438 0-2.062 1.586-3.257 4.41-3.427l2.855-.169v-.75c0-1.058-.74-1.672-1.903-1.672-1.153 0-1.883.571-2.031 1.407h-2.824c.117-2.2 1.989-3.712 4.992-3.712 2.909 0 4.802 1.502 4.802 3.786v7.795H93.18v-1.735h-.063c-.635 1.206-2.041 1.914-3.459 1.914Zm8.567-.18V13.996h3.088v15.262h-3.088Zm5.246 0V13.996h3.088v15.262h-3.088Zm10.259-9.297c-1.354 0-2.327 1.026-2.433 2.443h4.813c-.064-1.449-1.005-2.443-2.38-2.443Zm2.422 5.828h2.834c-.338 2.22-2.369 3.712-5.171 3.712-3.491 0-5.585-2.232-5.585-5.86 0-3.616 2.116-5.964 5.468-5.964 3.3 0 5.384 2.231 5.384 5.68v.94h-7.816v.19c0 1.619 1.026 2.73 2.601 2.73 1.132 0 1.999-.561 2.285-1.428Zm5.341-10.481h3.088v2.612h2.094v2.327h-2.094v5.425c0 .868.423 1.28 1.333 1.28.275 0 .56-.021.751-.053v2.274c-.318.074-.846.127-1.47.127-2.666 0-3.702-.888-3.702-3.099v-5.954h-1.597V17.92h1.597v-2.612Zm13.887 14.214c-4.442 0-7.224-2.972-7.224-7.9 0-4.918 2.803-7.89 7.224-7.89 3.67 0 6.462 2.326 6.705 5.743h-3.109c-.297-1.872-1.735-3.1-3.596-3.1-2.412 0-3.966 2.02-3.966 5.236 0 3.257 1.533 5.267 3.976 5.267 1.893 0 3.258-1.11 3.596-2.919h3.11c-.36 3.405-2.972 5.563-6.716 5.563Zm13.622-.021c-3.427 0-5.616-2.2-5.616-5.923 0-3.67 2.221-5.901 5.616-5.901 3.395 0 5.616 2.22 5.616 5.901 0 3.734-2.189 5.923-5.616 5.923Zm0-2.359c1.512 0 2.475-1.28 2.475-3.553 0-2.253-.973-3.554-2.475-3.554-1.502 0-2.486 1.301-2.486 3.554 0 2.274.963 3.553 2.486 3.553Zm7.202 2.116V17.92h2.983v2.02h.063c.603-1.407 1.798-2.232 3.543-2.232 2.518 0 3.935 1.587 3.935 4.242v7.308h-3.089v-6.663c0-1.481-.698-2.327-2.083-2.327-1.386 0-2.263 1.015-2.263 2.485v6.505h-3.089Zm12.48 0V17.92h2.983v2.02h.063c.603-1.407 1.798-2.232 3.543-2.232 2.518 0 3.935 1.587 3.935 4.242v7.308h-3.089v-6.663c0-1.481-.698-2.327-2.083-2.327-1.386 0-2.263 1.015-2.263 2.485v6.505h-3.089Zm17.568-9.297c-1.354 0-2.327 1.026-2.433 2.443h4.812c-.063-1.449-1.005-2.443-2.379-2.443Zm2.421 5.828h2.835c-.338 2.22-2.369 3.712-5.172 3.712-3.49 0-5.584-2.232-5.584-5.86 0-3.616 2.115-5.964 5.468-5.964 3.3 0 5.383 2.231 5.383 5.68v.94h-7.816v.19c0 1.619 1.026 2.73 2.602 2.73 1.132 0 1.999-.561 2.284-1.428Zm14.818-3.65h-2.866c-.18-1.194-.973-2.04-2.242-2.04-1.523 0-2.475 1.29-2.475 3.48 0 2.23.952 3.5 2.485 3.5 1.238 0 2.041-.74 2.232-1.978h2.876c-.158 2.676-2.157 4.4-5.14 4.4-3.416 0-5.584-2.221-5.584-5.923 0-3.638 2.168-5.901 5.563-5.901 3.067 0 5.013 1.893 5.151 4.463Zm2.327-6.831h3.088v2.612H211v2.327h-2.094v5.425c0 .868.423 1.28 1.333 1.28.275 0 .56-.021.75-.053v2.274c-.317.074-.846.127-1.47.127-2.665 0-3.701-.888-3.701-3.099v-5.954h-1.597V17.92h1.597v-2.612Z" clip-rule="evenodd"/><path fill="#3B99FC" d="M11.485 6.718c9.15-8.957 23.983-8.957 33.132 0l1.1 1.078a1.13 1.13 0 0 1 0 1.622l-3.766 3.688a.594.594 0 0 1-.828 0l-1.515-1.484c-6.383-6.249-16.731-6.249-23.114 0l-1.622 1.59a.594.594 0 0 1-.829 0l-3.766-3.689a1.13 1.13 0 0 1 0-1.622l1.208-1.183Zm40.921 7.627 3.352 3.282a1.13 1.13 0 0 1 0 1.622l-15.115 14.8a1.19 1.19 0 0 1-1.657 0L28.258 23.545a.297.297 0 0 0-.414 0L17.116 34.05a1.19 1.19 0 0 1-1.657 0L.343 19.249a1.13 1.13 0 0 1 0-1.622l3.352-3.282a1.19 1.19 0 0 1 1.657 0L16.08 24.849c.115.112.3.112.415 0l10.727-10.504a1.19 1.19 0 0 1 1.657 0l10.728 10.504c.115.112.3.112.415 0L50.75 14.345a1.19 1.19 0 0 1 1.656 0Z"/></svg>