<svg xmlns="http://www.w3.org/2000/svg" width="72" height="20" viewBox="0 0 72 20"><title>Artboard</title><g fill="#000" fill-rule="nonzero"><path d="M44.405034,18.702832 L37.431034,1.78483203 C37.3761489,1.63065463 37.3470916,1.46847436 37.345034,1.30483203 C37.3314262,0.957703834 37.454588,0.619098668 37.688034,0.361832028 C37.9299628,0.113960033 38.2671952,-0.0172871604 38.613034,0.00183202774 C38.8721072,0.00527899845 39.1237074,0.0891457305 39.333034,0.241832028 C39.5536021,0.404438909 39.726315,0.623438811 39.833034,0.875832028 L46.465034,17.430832 L53.093034,0.876832028 C53.1997102,0.624413499 53.3724313,0.405403167 53.593034,0.242832028 C53.8023607,0.0901457305 54.0539609,0.00627899845 54.313034,0.00283202774 C54.6588729,-0.0162871604 54.9961053,0.114960033 55.238034,0.362832028 C55.47148,0.620098668 55.5946418,0.958703834 55.581034,1.30583203 C55.5789764,1.46947436 55.5499191,1.63165463 55.495034,1.78583203 L48.518034,18.702832 C48.2724079,19.4647289 47.5703858,19.9868278 46.770034,20.002832 L46.153034,20.002832 C45.3526823,19.9868278 44.6506601,19.4647289 44.405034,18.702832 L44.405034,18.702832 Z"/><path d="M58.542034,19.488832 C58.3028605,19.2481656 58.1727526,18.9200048 58.182034,18.580832 L58.182034,1.43983203 C58.1758384,1.09617496 58.3051605,0.763889214 58.542034,0.514832028 C58.7765739,0.264903915 59.1074868,0.128238326 59.450034,0.139832028 L70.782034,0.139832028 C71.1062385,0.130686762 71.4186162,0.261907264 71.639034,0.499832028 C71.8740747,0.722256932 72.004727,1.03328213 71.999034,1.35683203 C72.0080118,1.67607427 71.876401,1.98316613 71.639034,2.19683203 C71.4105285,2.4208605 71.1020078,2.54434081 70.782034,2.53983203 L60.753034,2.53983203 L60.753034,8.77783203 L69.767034,8.77783203 C70.091214,8.76881815 70.4035396,8.90001678 70.624034,9.13783203 C70.8562355,9.3622107 70.9863443,9.67194202 70.984034,9.99483203 C70.9930118,10.3140743 70.861401,10.6211661 70.624034,10.834832 C70.3955285,11.0588605 70.0870078,11.1823408 69.767034,11.177832 L60.753034,11.177832 L60.753034,17.450832 L70.782034,17.450832 C71.1062385,17.4416868 71.4186162,17.5729073 71.639034,17.810832 C71.8740747,18.0332569 72.004727,18.3442821 71.999034,18.667832 C72.0080118,18.9870743 71.876401,19.2941661 71.639034,19.507832 C71.4105285,19.7318605 71.1020078,19.8553408 70.782034,19.850832 L59.450034,19.850832 C59.1079019,19.8755803 58.7732952,19.7421798 58.542034,19.488832 L58.542034,19.488832 Z"/><path d="M39.007034,18.220832 L32.033034,1.30283203 C31.7874079,0.540935166 31.0853858,0.0188363044 30.285034,0.00283202774 L29.668034,0.00283202774 C28.8676823,0.0188363044 28.1656601,0.540935166 27.920034,1.30283203 L24.887034,8.67183203 L22.587034,8.67183203 C21.8992889,8.67948292 21.3451784,9.23804765 21.343034,9.92583203 L21.343034,9.94283203 C21.3468591,10.6321496 21.9047164,11.190007 22.594034,11.193832 L23.828034,11.193832 L20.928034,18.220832 C20.8731489,18.3750094 20.8440916,18.5371897 20.842034,18.700832 C20.8283183,19.0479771 20.9514945,19.3866218 21.185034,19.643832 C21.4269628,19.891704 21.7641952,20.0229512 22.110034,20.003832 C22.3691072,20.0003851 22.6207074,19.9165183 22.830034,19.763832 C23.0506367,19.6012609 23.2233578,19.3822506 23.330034,19.129832 L26.517034,11.194832 L28.710034,11.194832 C29.3993516,11.191007 29.957209,10.6331496 29.961034,9.94383203 L29.961034,9.90883203 C29.957209,9.21951442 29.3993516,8.6616571 28.710034,8.65783203 L27.528034,8.65783203 L29.978034,2.57383203 L36.610034,19.128832 C36.7167531,19.3812252 36.8894659,19.6002251 37.110034,19.762832 C37.3193607,19.9155183 37.5709609,19.9993851 37.830034,20.002832 C38.1758729,20.0219512 38.5131053,19.890704 38.755034,19.642832 C38.9885735,19.3856218 39.1117497,19.0469771 39.098034,18.699832 C39.1027263,18.535461 39.0716779,18.3720306 39.007034,18.220832 L39.007034,18.220832 Z"/><path d="M18.169034,18.220832 L11.195034,1.30283203 C10.9494079,0.540935166 10.2473858,0.0188363044 9.44703403,0.00283202774 L8.83003403,0.00283202774 C8.02968231,0.0188363044 7.32766015,0.540935166 7.08203403,1.30283203 L4.04903403,8.67483203 L1.74903403,8.67483203 C1.0624516,8.68246293 0.508812273,9.23921759 0.505034031,9.92583203 L0.505034031,9.94283203 C0.508859108,10.6321496 1.06671642,11.190007 1.75603403,11.193832 L2.98703403,11.193832 L0.0870340312,18.220832 C0.0321489188,18.3750094 0.00309162022,18.5371897 0.00103403123,18.700832 C-0.0126816807,19.0479771 0.110494517,19.3866218 0.344034031,19.643832 C0.585962805,19.891704 0.923195175,20.0229512 1.26903403,20.003832 C1.52810715,20.0003851 1.77970735,19.9165183 1.98903403,19.763832 C2.20963674,19.6012609 2.38235782,19.3822506 2.48903403,19.129832 L5.67603403,11.194832 L7.88703403,11.194832 C8.57712984,11.1915484 9.13575041,10.6329278 9.13903403,9.94283203 L9.13903403,9.90883203 C9.13520895,9.21951442 8.57735164,8.6616571 7.88803403,8.65783203 L6.70503403,8.65783203 L9.13803403,2.57383203 L15.770034,19.128832 C15.8767102,19.3812506 16.0494313,19.6002609 16.270034,19.762832 C16.4793607,19.9155183 16.7309609,19.9993851 16.990034,20.002832 C17.3358729,20.0219512 17.6731053,19.890704 17.915034,19.642832 C18.1485735,19.3856218 18.2717497,19.0469771 18.258034,18.699832 C18.2633258,18.5356102 18.2329622,18.3721925 18.169034,18.220832 Z"/></g></svg>