<svg xmlns="http://www.w3.org/2000/svg" width="360" height="64" viewBox="0 0 360 64"><title>Artboard 2</title><path fill="#000" fill-rule="nonzero" d="M72.3094,17.8676 C59.2941,17.8676 49.1245,27.7478 49.1245,40.9744 C49.1245,54.2011 59.0371,63.9967 72.3094,63.9967 C85.5816,63.9967 95.6666,54.032 95.6666,40.8899 C95.6666,27.8323 85.754,17.8676 72.3094,17.8676 Z M72.3972,54.4646 C64.9854,54.4646 59.5542,48.7082 59.5542,40.9777 C59.5542,33.1594 64.8976,27.4063 72.3094,27.4063 C79.8089,27.4063 85.2369,33.2472 85.2369,40.9777 C85.2369,48.7082 79.8089,54.4646 72.3972,54.4646 Z M98.5091,27.9201 L104.974,27.9201 L104.974,63.1414 L115.316,63.1414 L115.316,18.7262 L98.5091,18.7262 L98.5091,27.9201 Z M23.0971,27.403 C28.5283,27.403 32.8374,30.7528 34.4733,35.7351 L45.4202,35.7351 C43.4364,25.0842 34.6457,17.8676 23.1849,17.8676 C10.1696,17.8676 0,27.7478 0,40.9777 C0,54.2076 9.9127,64 23.1849,64 C34.3887,64 43.3518,56.7834 45.3356,46.0446 L34.4733,46.0446 C32.922,51.027 28.6128,54.4646 23.1817,54.4646 C15.6821,54.4646 10.4265,48.7082 10.4265,40.9777 C10.4298,33.1594 15.6008,27.403 23.0971,27.403 Z M295.013,36.6815 L287.429,35.566 C283.81,35.0522 281.224,33.8489 281.224,31.013 C281.224,27.9201 284.587,26.3753 289.153,26.3753 C294.152,26.3753 297.342,28.5218 298.031,32.0439 L308.029,32.0439 C306.907,23.1101 300.012,17.8708 289.413,17.8708 C278.466,17.8708 271.227,23.4549 271.227,31.3577 C271.227,38.9158 275.968,43.2998 285.533,44.6722 L293.117,45.7877 C296.825,46.3015 298.893,47.765 298.893,50.5131 C298.893,54.0353 295.274,55.4955 290.275,55.4955 C284.154,55.4955 280.707,53.0043 280.19,49.2253 L270.02,49.2253 C270.97,57.9021 277.777,64 290.187,64 C301.479,64 308.975,58.8453 308.975,49.996 C308.975,42.0932 303.547,37.9694 295.013,36.6815 Z M110.145,0.42929 C106.353,0.42929 103.508,3.1774 103.508,6.95645 C103.508,10.7355 106.35,13.4836 110.145,13.4836 C113.937,13.4836 116.783,10.7355 116.783,6.95645 C116.783,3.1774 113.937,0.42929 110.145,0.42929 Z M261.919,33.9334 C261.919,24.3134 256.059,17.8708 243.648,17.8708 C231.927,17.8708 225.377,23.7996 224.083,32.9057 L234.34,32.9057 C234.857,29.3836 237.615,26.4631 243.476,26.4631 C248.735,26.4631 251.32,28.7819 251.32,31.6179 C251.32,35.3124 246.578,36.2555 240.718,36.8572 C232.789,37.7157 222.964,40.4638 222.964,50.7733 C222.964,58.764 228.912,63.9154 238.393,63.9154 C245.804,63.9154 250.458,60.8226 252.787,55.9248 C253.132,60.3055 256.407,63.1414 260.976,63.1414 L267.009,63.1414 L267.009,53.9507 L261.922,53.9507 L261.922,33.9334 L261.919,33.9334 Z M251.749,45.1015 C251.749,51.0302 246.578,55.4109 240.285,55.4109 C236.406,55.4109 233.131,53.7783 233.131,50.344 C233.131,45.9633 238.389,44.76 243.216,44.2462 C247.87,43.8169 250.455,42.7859 251.749,40.8086 L251.749,45.1015 Z M196.849,17.8676 C191.073,17.8676 186.247,20.2742 182.8,24.3102 L182.8,0 L172.458,0 L172.458,63.1414 L182.627,63.1414 L182.627,57.3005 C186.074,61.5088 190.989,64 196.849,64 C209.259,64 218.655,54.2076 218.655,40.9777 C218.655,27.7478 209.087,17.8676 196.849,17.8676 Z M195.298,54.4646 C187.886,54.4646 182.455,48.7082 182.455,40.9777 C182.455,33.2472 187.971,27.4063 195.382,27.4063 C202.882,27.4063 208.137,33.1627 208.137,40.9777 C208.137,48.7082 202.709,54.4646 195.298,54.4646 Z M147.721,17.8676 C140.999,17.8676 136.602,20.6157 134.017,24.4825 L134.017,18.7262 L123.759,18.7262 L123.759,63.1382 L134.101,63.1382 L134.101,39.0004 C134.101,32.213 138.41,27.403 144.788,27.403 C150.736,27.403 154.44,31.6114 154.44,37.7125 L154.44,63.1414 L164.782002,63.1414 L164.782002,36.9417 C164.786,25.7704 159.013,17.8676 147.721,17.8676 Z M358.275,39.5175 C358.275,26.8046 348.967,17.8708 336.469,17.8708 C323.197,17.8708 313.457,27.8356 313.457,40.9777 C313.457,54.8093 323.886,64 336.642,64 C347.416,64 355.862,57.642 358.015,48.6236 L347.24,48.6236 C345.689,52.575 341.897,54.8093 336.811,54.8093 C330.173,54.8093 325.174,50.6855 324.055,43.4689 L358.272,43.4689 L358.272,39.5175 L358.275,39.5175 Z M324.66,36.0799 C326.3,29.8942 330.953,26.8892 336.297,26.8892 C342.157,26.8892 346.639,30.2389 347.673,36.0799 L324.66,36.0799 Z" transform="translate(0.005034, 0.002832)"/></svg>