<svg xmlns="http://www.w3.org/2000/svg" width="154" height="32" viewBox="0 0 154 32"><title>a</title><g fill="#000" fill-rule="nonzero" transform="translate(0.005034, 0.002832)"><path d="M26.9585,9.7759 C26.2994,9.36998 25.4425,9.36998 24.7175,9.7759 L19.5762,12.8879 L16.0828,14.9175 L10.9416,18.0296 C10.2825,18.4355 9.4256,18.4355 8.70055,18.0296 L4.61393,15.5941 C3.9548,15.1882 3.4934,14.444 3.4934,13.6321 L3.4934,8.82875 C3.4934,8.01691 3.88888,7.27273 4.61393,6.86681 L8.63464,4.49894 C9.29377,4.09302 10.1506,4.09302 10.8757,4.49894 L14.8964,6.86681 C15.5555,7.27273 16.0169,8.01691 16.0169,8.82875 L16.0169,11.9408 L19.5103,9.84355 L19.5103,6.7315 C19.5103,5.91966 19.1149,5.17548 18.3898,4.76956 L10.9416,0.30444 C10.2825,-0.10148 9.4256,-0.10148 8.70055,0.30444 L1.12053,4.76956 C0.39548,5.17548 0,5.91966 0,6.7315 L0,15.7294 C0,16.5412 0.39548,17.2854 1.12053,17.6913 L8.70055,22.1564 C9.35969,22.5624 10.2166,22.5624 10.9416,22.1564 L16.0828,19.112 L19.5762,17.0148 L24.7175,13.9704 C25.3766,13.5645 26.2335,13.5645 26.9585,13.9704 L30.9792,16.3383 C31.6384,16.7442 32.0998,17.4884 32.0998,18.3002 L32.0998,23.1036 C32.0998,23.9154 31.7043,24.6596 30.9792,25.0655 L26.9585,27.5011 C26.2994,27.907 25.4425,27.907 24.7175,27.5011 L20.6968,25.1332 C20.0376,24.7273 19.5762,23.9831 19.5762,23.1712 L19.5762,20.0592 L16.0828,22.1564 L16.0828,25.2685 C16.0828,26.0803 16.4783,26.8245 17.2034,27.2304 L24.7834,31.6956 C25.4425,32.1015 26.2994,32.1015 27.0244,31.6956 L34.6045,27.2304 C35.2636,26.8245 35.725,26.0803 35.725,25.2685 L35.725,16.2706 C35.725,15.4588 35.3295,14.7146 34.6045,14.3087 L26.9585,9.7759 Z"/><path d="M49.6421,29.1225 L49.6421,21.6525 C50.4459,22.6725 51.9046,23.2425 53.6016,23.2425 C57.9183,23.2425 60.8359,20.1525 60.8359,15.4425 C60.8359,10.7325 58.1565,7.6425 53.9588,7.6425 C52.0237,7.6425 50.5352,8.3625 49.6421,9.5325 L49.6421,7.8825 L45.5039,7.8825 L45.5039,29.1225 L49.6421,29.1225 Z M53.0955,19.6425 C50.8627,19.6425 49.4039,17.9625 49.4039,15.4425 C49.4039,12.8925 50.8627,11.2125 53.0955,11.2125 C55.2687,11.2125 56.7573,12.8925 56.7573,15.4425 C56.7573,17.9625 55.2687,19.6425 53.0955,19.6425 Z"/><path d="M70.2325,23.2425 C74.847,23.2425 78.1516,19.9425 78.1516,15.4425 C78.1516,10.9425 74.847,7.6425 70.2325,7.6425 C65.6181,7.6425 62.3135,10.9425 62.3135,15.4425 C62.3135,19.9425 65.6181,23.2425 70.2325,23.2425 Z M70.2325,19.6425 C67.9997,19.6425 66.4814,17.9325 66.4814,15.4425 C66.4814,12.9225 67.9997,11.2125 70.2325,11.2125 C72.4654,11.2125 73.9837,12.9225 73.9837,15.4425 C73.9837,17.9325 72.4654,19.6425 70.2325,19.6425 Z"/><polygon points="84.791 23.003 84.791 1.313 80.653 1.313 80.653 23.003"/><polygon points="97.231 7.883 94.105 17.633 90.949 7.883 86.722 7.883 92.17 22.883 89.967 29.122 93.926 29.122 96.04 22.942 101.488 7.883"/><path d="M113.11,9.3825 C112.276,8.3325 110.788,7.6425 108.972,7.6425 C104.595,7.6425 101.946,10.7325 101.946,15.4425 C101.946,20.1525 104.595,23.2425 109.031,23.2425 C110.788,23.2425 112.365,22.5825 113.14,21.4725 L113.14,23.4525 C113.14,24.8625 112.217,25.8525 110.966,25.8525 L104.059,25.8525 L104.059,29.1225 L111.621,29.1225 C115.015,29.1225 117.278,27.0525 117.278,23.9025 L117.278,7.8825 L113.11,7.8825 L113.11,9.3825 Z M109.686,19.6425 C107.483,19.6425 106.024,17.9925 106.024,15.4425 C106.024,12.8925 107.483,11.2125 109.686,11.2125 C111.919,11.2125 113.378,12.8925 113.378,15.4425 C113.378,17.9925 111.919,19.6425 109.686,19.6425 Z"/><path d="M127.71,23.2425 C132.325,23.2425 135.629,19.9425 135.629,15.4425 C135.629,10.9425 132.325,7.6425 127.71,7.6425 C123.096,7.6425 119.791,10.9425 119.791,15.4425 C119.791,19.9425 123.096,23.2425 127.71,23.2425 Z M127.71,19.6425 C125.477,19.6425 123.959,17.9325 123.959,15.4425 C123.959,12.9225 125.477,11.2125 127.71,11.2125 C129.943,11.2125 131.461,12.9225 131.461,15.4425 C131.461,17.9325 129.943,19.6425 127.71,19.6425 Z"/><path d="M142.061,23.0025 L142.061,14.7225 C142.061,12.7725 143.341,11.3625 145.157,11.3625 C146.883,11.3625 148.044,12.6825 148.044,14.5125 L148.044,23.0025 L152.212,23.0025 L152.212,13.5825 C152.212,10.1025 150.009,7.6425 146.615,7.6425 C144.561,7.6425 142.894,8.5125 142.061,9.9825 L142.061,7.8825 L137.893,7.8825 L137.893,23.0025 L142.061,23.0025 Z"/></g></svg>