<svg xmlns="http://www.w3.org/2000/svg" width="528" height="149" viewBox="0 0 528 149"><title>Artboard 3</title><g fill="#000" fill-rule="nonzero" transform="translate(0.005034, 0.002832)"><path d="M160,81.37 C152.09,81.37 145.91,77 145.91,67.69 L145.91,47.83 L140.23,47.83 L140.23,39.75 L145.91,39.75 L145.91,29.48 L155,29.48 L155,39.75 L163.93,39.75 L163.93,47.83 L155,47.83 L155,66.2 C155,71.31 157.22,73.2 161.92,73.2 C163.57552,73.202999 165.21931,72.9222694 166.78,72.37 L166.78,80.45 C164.582478,81.111463 162.294327,81.4219495 160,81.37 Z"/><path d="M176.11,19.15 L185.17,19.15 L185.17,45.36 C187.64,41.24 192.34,38.93 197.7,38.93 C207.26,38.93 213.44,45.69 213.44,56.15 L213.44,81 L204.37,81 L204.37,57.63 C204.37,51.12 201.08,47.17 195.8,47.17 C189.8,47.17 185.17,51.87 185.17,60.68 L185.17,81 L176.11,81 L176.11,19.15 Z"/><path d="M243.94,81.78 C231.66,81.78 222.84,72.71 222.84,60.35 C222.84,48.16 231.33,38.93 244.02,38.93 C256.71,38.93 265.45,48.57 264.62,62.58 L231.83,62.58 C232.16,68.84 236.94,73.79 244.27,73.79 C248.8,73.79 252.76,71.97 254.65,68.02 L264.13,68.02 C261.82,75.76 254.41,81.78 243.94,81.78 Z M232.16,56.15 L254.9,56.15 C253.5,49.48 248.8,46.51 243.78,46.51 C238.01014,46.2752823 232.994802,50.4360274 232.16,56.15 L232.16,56.15 Z"/><path d="M308.87,84.17 C310.52,89.03 314.47,91.25 320.24,91.25 C326.42,91.25 331.45,87.13 331.45,79.14 L331.45,74.28 C328.98,77.91 323.95,80.71 318.26,80.71 C307.14,80.71 298.49,71.48 298.49,59.78 C298.49,48.08 307.14,38.93 318.26,38.93 C323.95,38.93 328.98,41.65 331.45,45.27 L331.45,39.75 L340.51,39.75 L340.51,78.4 C340.51,92.74 331,99 320,99 C308.7,99 301,92.74 300,84.17 L308.87,84.17 Z M319.87,47.17 C312.87,47.17 307.59,52.44 307.59,59.78 C307.59,67.12 312.87,72.38 319.87,72.38 C326.87,72.38 332.15,67.11 332.15,59.78 C332.15,52.45 326.91,47.17 319.91,47.17 L319.87,47.17 Z"/><path d="M353,39.75 L362,39.75 L362,47.09 C363.619825,42.4678905 367.972335,39.3646749 372.87,39.34 C374.061459,39.329413 375.250907,39.4399815 376.42,39.67 L376.42,49 C374.956515,48.5099561 373.423351,48.2600571 371.88,48.26 C366.69,48.26 362,52.63 362,60.87 L362,81 L353,81 L353,39.75 Z"/><path d="M403.89,38.93 C409.032887,38.8666872 413.909385,41.2124379 417.07,45.27 L417.07,39.75 L426.13,39.75 L426.13,81 L417.07,81 L417.07,75.43 C413.913444,79.4938022 409.035312,81.8440407 403.89,81.78 C392.6,81.78 384,72.14 384,60.35 C384,48.56 392.6,38.93 403.89,38.93 Z M405.53,47.17 C398.2,47.17 393.26,52.94 393.26,60.35 C393.26,67.76 398.2,73.54 405.53,73.54 C412.86,73.54 417.81,67.77 417.81,60.35 C417.81,52.93 412.87,47.17 405.53,47.17 Z"/><path d="M436.65,39.75 L445.72,39.75 L445.72,45.27 C448,42 453.05,38.93 459,38.93 C470.29,38.93 478.86,48.57 478.86,60.35 C478.86,72.13 470.27,81.78 459,81.78 C453.07,81.78 448,78.78 445.74,75.43 L445.74,98.18 L436.67,98.18 L436.65,39.75 Z M457.33,47.17 C450,47.17 445,52.94 445,60.35 C445,67.76 450,73.54 457.35,73.54 C464.7,73.54 469.63,67.77 469.63,60.35 C469.63,52.93 464.59,47.17 457.33,47.17 Z"/><path d="M489.36,19.15 L498.42,19.15 L498.42,45.36 C500.9,41.24 505.59,38.93 510.95,38.93 C520.51,38.93 526.69,45.69 526.69,56.15 L526.69,81 L517.62,81 L517.62,57.63 C517.62,51.12 514.33,47.17 509.05,47.17 C503.05,47.17 498.42,51.87 498.42,60.68 L498.42,81 L489.36,81 L489.36,19.15 Z"/><circle cx="107.25" cy="8.25" r="8.25"/><path d="M49.5,0 C22.1619049,0 0,22.1619049 0,49.5 C0,76.8380951 22.1619049,99 49.5,99 C76.8380951,99 99,76.8380951 99,49.5 C99,36.3717838 93.7848364,23.7812651 84.5017857,14.4982143 C75.2187349,5.2151636 62.6282162,0 49.5,0 Z M49.5,82.5 C31.2746033,82.5 16.5,67.7253967 16.5,49.5 C16.5,31.2746033 31.2746033,16.5 49.5,16.5 C67.7253967,16.5 82.5,31.2746033 82.5,49.5 C82.5,58.2521442 79.0232243,66.6458233 72.8345238,72.8345238 C66.6458233,79.0232243 58.2521442,82.5 49.5,82.5 Z"/><path d="M96.58,101.42 C95.035729,99.8701353 92.9378879,98.9989586 90.75,98.9989586 C88.5621121,98.9989586 86.464271,99.8701353 84.92,101.42 L51.92,134.42 C49.8371416,136.502858 49.0236928,139.538691 49.7860719,142.383928 C50.548451,145.229166 52.7708344,147.451549 55.6160719,148.213928 C58.4613094,148.976307 61.4971416,148.162858 63.58,146.08 L96.58,113.08 C98.1298647,111.535729 99.0010414,109.437888 99.0010414,107.25 C99.0010414,105.062112 98.1298647,102.964271 96.58,101.42 L96.58,101.42 Z"/></g></svg>