<svg xmlns="http://www.w3.org/2000/svg" width="1041" height="320" viewBox="0 0 1041 320"><title>toucan--black</title><g fill="#000" fill-rule="evenodd"><path fill-rule="nonzero" d="M102.976,67.4627 C111.054,67.4627 117.603,60.914 117.603,52.8358 C117.603,50.0743 116.837,47.4915 115.507,45.2879 C114.821,47.0833 113.082,48.3582 111.045,48.3582 C108.407,48.3582 106.269,46.2199 106.269,43.5821 C106.269,41.7762 107.271,40.2045 108.749,39.3926 C106.978,38.6309 105.026,38.209 102.976,38.209 C94.8976,38.209 88.3489,44.7576 88.3489,52.8358 C88.3489,60.914 94.8976,67.4627 102.976,67.4627 Z"/><path d="M132.836,114.627 L147.702,0.108824 C145.84,0.0364979 143.969,0 142.09,0 C63.6157,0 0,63.6157 0,142.09 C0,201.22 36.119,251.914 87.4978,273.313 L95.216,218.806 C95.216,218.806 96.6868,259.182 110.95,280.756 C120.972,282.997 131.393,284.179 142.09,284.179 C156.351,284.179 170.121,282.078 183.108,278.169 C146.638,237.797 146.211,164.382 160.73,114.627 L132.836,114.627 Z M114.555,15.3889 C128.086,12.29 138.345,24.5215 136.347,38.2584 L121.589,139.718 C116.738,173.071 84.5778,201.737 59.9538,178.724 C44.5292,164.309 34.031,138.57 43.1934,92.6984 C53.9644,38.7734 89.6505,21.0925 114.555,15.3889 Z"/><path d="M139.597,106.866 L252.537,106.866 L306.866,106.866 C304.887,89.9352 298.914,74.2136 289.97,60.6504 C270.857,31.6648 237.914,12.5373 200.597,12.5373 L153.51,12.5373 L139.597,106.866 Z M125.075,119.403 L142.687,7.10542736e-15 L200.597,7.10542736e-15 C262.307,7.10542736e-15 313.197,46.8139 319.463,106.866 C319.893,110.986 320,115.169 320,119.403 L125.075,119.403 Z"/><path fill-rule="nonzero" d="M309.552,115.821 C299.43,114.408 249.872,120.533 252.537,106.866 C256.601,86.0235 270.932,68.8224 289.97,60.6504 C309.124,52.4291 315.143,116.601 309.552,115.821 Z"/><path fill-rule="nonzero" d="M318.209,319.729 C318.209,319.729 147.463,335.439 147.463,127.761 C251.292,127.761 311.719,218.145 318.209,319.729 Z"/><path fill-rule="nonzero" d="M517.399,119.4 L517.399,93.2002 L399.999,93.2002 L399.999,119.4 L444.799,119.4 L444.799,235 L472.599,235 L472.599,119.4 L517.399,119.4 Z M554.082,213.8 C541.082,213.8 529.082,204.2 529.082,185.8 C529.082,167.2 541.082,157.8 554.082,157.8 C567.082,157.8 579.082,167.2 579.082,185.8 C579.082,204.4 567.082,213.8 554.082,213.8 Z M554.082,133.6 C524.682,133.6 502.482,155.4 502.482,185.8 C502.482,216 524.682,238 554.082,238 C583.482,238 605.682,216 605.682,185.8 C605.682,155.4 583.482,133.6 554.082,133.6 Z M684.688,235 L710.088,235 C709.688,231.6 709.088,224.8 709.088,217.2 L709.088,136.6 L682.488,136.6 L682.488,193.8 C682.488,205.2 675.688,213.2 663.888,213.2 C651.488,213.2 645.888,204.4 645.888,193.4 L645.888,136.6 L619.288,136.6 L619.288,198.8 C619.288,220.2 632.888,237.6 656.688,237.6 C667.088,237.6 678.488,233.6 683.888,224.4 C683.888,228.4 684.288,233 684.688,235 Z M775.285,158.2 C788.485,158.2 794.685,166.6 797.085,174.8 L820.885,166.8 C816.685,150.2 801.485,133.6 774.685,133.6 C746.085,133.6 723.685,155.4 723.685,185.8 C723.685,216 746.485,238 775.485,238 C801.685,238 817.085,221.2 821.485,204.8 L798.085,197 C795.885,204.6 789.085,213.6 775.485,213.6 C761.885,213.6 750.285,203.6 750.285,185.8 C750.285,168 761.685,158.2 775.285,158.2 Z M853.469,185.4 C853.469,167.4 863.869,156.8 878.069,156.8 C892.069,156.8 902.269,167.4 902.269,185.4 C902.269,203.4 891.869,214.8 878.069,214.8 C863.669,214.8 853.469,203.2 853.469,185.4 Z M902.469,222.8 C902.469,227.6 903.069,232.8 903.469,235 L928.869,235 C928.669,232.8 928.069,226 928.069,217.2 L928.069,136.6 L902.269,136.6 L902.269,148.8 C899.869,143.2 891.669,133.8 874.069,133.8 C845.469,133.8 826.669,156.6 826.669,185.4 C826.669,215.2 845.869,237.8 874.869,237.8 C888.069,237.8 898.269,231 902.469,221.6 L902.469,222.8 Z M977.129,178.4 C977.129,167 983.929,158 995.529,158 C1008.33,158 1013.73,166.6 1013.73,177.6 L1013.73,235 L1040.33,235 L1040.33,173 C1040.33,151.4 1029.13,134 1004.73,134 C994.129,134 982.329,138.6 976.329,148.8 L976.329,136.6 L950.53,136.6 L950.53,235 L977.129,235 L977.129,178.4 Z"/></g></svg>