<svg xmlns="http://www.w3.org/2000/svg" width="211" height="35" viewBox="0 0 211 35"><title>Artboard 4</title><g fill="#000" fill-rule="evenodd"><path d="M76.2161207,18.82975 L73.3181207,29.25775 L70.3041207,29.25775 L66.2641207,13.99575 L69.5741207,13.99575 L71.9741207,25.04775 L72.0591207,25.04775 L74.9151207,13.99575 L77.6121207,13.99575 L80.4681207,25.04775 L80.5521207,25.04775 L82.9641207,13.99575 L86.2741207,13.99575 L82.2241207,29.25775 L79.2091207,29.25775 L76.3111207,18.82975 L76.2161207,18.82975 L76.2161207,18.82975 Z M90.6741207,27.20575 C92.0171207,27.20575 93.1271207,26.32775 93.1271207,25.10075 L93.1271207,24.27575 L90.7371207,24.42375 C89.5841207,24.50875 88.9291207,25.02675 88.9291207,25.83075 C88.9291207,26.67675 89.6271207,27.20575 90.6741207,27.20575 Z M89.6581207,29.43775 C87.5011207,29.43775 85.8621207,28.04075 85.8621207,25.99975 C85.8621207,23.93775 87.4481207,22.74275 90.2721207,22.57275 L93.1271207,22.40375 L93.1271207,21.65375 C93.1271207,20.59575 92.3871207,19.98175 91.2241207,19.98175 C90.0711207,19.98175 89.3411207,20.55275 89.1931207,21.38875 L86.3691207,21.38875 C86.4861207,19.18875 88.3581207,17.67675 91.3611207,17.67675 C94.2701207,17.67675 96.1631207,19.17875 96.1631207,21.46275 L96.1631207,29.25775 L93.1801207,29.25775 L93.1801207,27.52275 L93.1171207,27.52275 C92.4821207,28.72875 91.0761207,29.43675 89.6581207,29.43675 L89.6581207,29.43775 Z M98.2251207,29.25775 L98.2251207,13.99575 L101.313121,13.99575 L101.313121,29.25775 L98.2251207,29.25775 L98.2251207,29.25775 Z M103.471121,29.25775 L103.471121,13.99575 L106.559121,13.99575 L106.559121,29.25775 L103.471121,29.25775 L103.471121,29.25775 Z M113.730121,19.96075 C112.376121,19.96075 111.403121,20.98675 111.297121,22.40375 L116.110121,22.40375 C116.046121,20.95475 115.105121,19.96075 113.730121,19.96075 L113.730121,19.96075 Z M116.152121,25.78875 L118.986121,25.78875 C118.648121,28.00875 116.617121,29.50075 113.815121,29.50075 C110.324121,29.50075 108.230121,27.26875 108.230121,23.64075 C108.230121,20.02475 110.346121,17.67675 113.698121,17.67675 C116.998121,17.67675 119.082121,19.90775 119.082121,23.35675 L119.082121,24.29675 L111.266121,24.29675 L111.266121,24.48675 C111.266121,26.10575 112.292121,27.21675 113.867121,27.21675 C114.999121,27.21675 115.866121,26.65575 116.152121,25.78875 Z M121.493121,15.30775 L124.581121,15.30775 L124.581121,17.91975 L126.675121,17.91975 L126.675121,20.24675 L124.581121,20.24675 L124.581121,25.67175 C124.581121,26.53975 125.004121,26.95175 125.914121,26.95175 C126.189121,26.95175 126.474121,26.93075 126.665121,26.89875 L126.665121,29.17275 C126.347121,29.24675 125.819121,29.29975 125.195121,29.29975 C122.529121,29.29975 121.493121,28.41175 121.493121,26.20075 L121.493121,20.24675 L119.896121,20.24675 L119.896121,17.91975 L121.493121,17.91975 L121.493121,15.30775 L121.493121,15.30775 Z M135.380121,29.52175 C130.938121,29.52175 128.156121,26.54975 128.156121,21.62175 C128.156121,16.70375 130.959121,13.73175 135.380121,13.73175 C139.050121,13.73175 141.842121,16.05775 142.085121,19.47475 L138.976121,19.47475 C138.679121,17.60275 137.241121,16.37475 135.380121,16.37475 C132.968121,16.37475 131.414121,18.39475 131.414121,21.61075 C131.414121,24.86775 132.947121,26.87775 135.390121,26.87775 C137.283121,26.87775 138.648121,25.76775 138.986121,23.95875 L142.096121,23.95875 C141.736121,27.36375 139.124121,29.52175 135.380121,29.52175 L135.380121,29.52175 Z M149.002121,29.50075 C145.575121,29.50075 143.386121,27.30075 143.386121,23.57775 C143.386121,19.90775 145.607121,17.67675 149.002121,17.67675 C152.397121,17.67675 154.618121,19.89675 154.618121,23.57775 C154.618121,27.31175 152.429121,29.50075 149.002121,29.50075 L149.002121,29.50075 Z M149.002121,27.14175 C150.514121,27.14175 151.477121,25.86175 151.477121,23.58875 C151.477121,21.33575 150.504121,20.03475 149.002121,20.03475 C147.500121,20.03475 146.516121,21.33575 146.516121,23.58875 C146.516121,25.86275 147.479121,27.14175 149.002121,27.14175 Z M156.204121,29.25775 L156.204121,17.91975 L159.187121,17.91975 L159.187121,19.93975 L159.250121,19.93975 C159.853121,18.53275 161.048121,17.70775 162.793121,17.70775 C165.311121,17.70775 166.728121,19.29475 166.728121,21.94975 L166.728121,29.25775 L163.639121,29.25775 L163.639121,22.59475 C163.639121,21.11375 162.941121,20.26775 161.556121,20.26775 C160.170121,20.26775 159.293121,21.28275 159.293121,22.75275 L159.293121,29.25775 L156.204121,29.25775 L156.204121,29.25775 Z M168.684121,29.25775 L168.684121,17.91975 L171.667121,17.91975 L171.667121,19.93975 L171.730121,19.93975 C172.333121,18.53275 173.528121,17.70775 175.273121,17.70775 C177.791121,17.70775 179.208121,19.29475 179.208121,21.94975 L179.208121,29.25775 L176.119121,29.25775 L176.119121,22.59475 C176.119121,21.11375 175.421121,20.26775 174.036121,20.26775 C172.650121,20.26775 171.773121,21.28275 171.773121,22.75275 L171.773121,29.25775 L168.684121,29.25775 L168.684121,29.25775 Z M186.252121,19.96075 C184.898121,19.96075 183.925121,20.98675 183.819121,22.40375 L188.631121,22.40375 C188.568121,20.95475 187.626121,19.96075 186.252121,19.96075 L186.252121,19.96075 Z M188.673121,25.78875 L191.508121,25.78875 C191.170121,28.00875 189.139121,29.50075 186.336121,29.50075 C182.846121,29.50075 180.752121,27.26875 180.752121,23.64075 C180.752121,20.02475 182.867121,17.67675 186.220121,17.67675 C189.520121,17.67675 191.603121,19.90775 191.603121,23.35675 L191.603121,24.29675 L183.787121,24.29675 L183.787121,24.48675 C183.787121,26.10575 184.813121,27.21675 186.389121,27.21675 C187.521121,27.21675 188.388121,26.65575 188.673121,25.78875 Z M203.491121,22.13875 L200.625121,22.13875 C200.445121,20.94475 199.652121,20.09875 198.383121,20.09875 C196.860121,20.09875 195.908121,21.38875 195.908121,23.57875 C195.908121,25.80875 196.860121,27.07875 198.393121,27.07875 C199.631121,27.07875 200.434121,26.33875 200.625121,25.10075 L203.501121,25.10075 C203.343121,27.77675 201.344121,29.50075 198.361121,29.50075 C194.945121,29.50075 192.777121,27.27975 192.777121,23.57775 C192.777121,19.93975 194.945121,17.67675 198.340121,17.67675 C201.407121,17.67675 203.353121,19.56975 203.491121,22.13975 L203.491121,22.13875 Z M205.818121,15.30775 L208.906121,15.30775 L208.906121,17.91975 L211.000121,17.91975 L211.000121,20.24675 L208.906121,20.24675 L208.906121,25.67175 C208.906121,26.53975 209.329121,26.95175 210.239121,26.95175 C210.514121,26.95175 210.799121,26.93075 210.989121,26.89875 L210.989121,29.17275 C210.672121,29.24675 210.143121,29.29975 209.519121,29.29975 C206.854121,29.29975 205.818121,28.41175 205.818121,26.20075 L205.818121,20.24675 L204.221121,20.24675 L204.221121,17.91975 L205.818121,17.91975 L205.818121,15.30775 L205.818121,15.30775 Z" transform="translate(0.004913, 0.003082)"/><path fill-rule="nonzero" d="M11.4851207,6.71775 C20.6351207,-2.23925 35.4681207,-2.23925 44.6171207,6.71775 L45.7171207,7.79575 C45.9364564,8.00856225 46.0602414,8.30114042 46.0602414,8.60675 C46.0602414,8.91235958 45.9364564,9.20493775 45.7171207,9.41775 L41.9511207,13.10575 C41.7205929,13.3298063 41.3536486,13.3298063 41.1231207,13.10575 L39.6081207,11.62175 C33.2251207,5.37275 22.8771207,5.37275 16.4941207,11.62175 L14.8721207,13.21175 C14.6414681,13.4364551 14.2737734,13.4364551 14.0431207,13.21175 L10.2771207,9.52275 C10.057785,9.30993775 9.934,9.01735958 9.934,8.71175 C9.934,8.40614042 10.057785,8.11356225 10.2771207,7.90075 L11.4851207,6.71775 L11.4851207,6.71775 Z M52.4061207,14.34475 L55.7581207,17.62675 C55.9774564,17.8395623 56.1012414,18.1321404 56.1012414,18.43775 C56.1012414,18.7433596 55.9774564,19.0359377 55.7581207,19.24875 L40.6431207,34.04875 C40.1815134,34.4964598 39.447728,34.4964598 38.9861207,34.04875 L28.2581207,23.54475 C28.1428568,23.4327218 27.9593847,23.4327218 27.8441207,23.54475 L17.1161207,34.04975 C16.6545134,34.4974598 15.920728,34.4974598 15.4591207,34.04975 L0.343120721,19.24875 C0.123784996,19.0359377 0,18.7433596 0,18.43775 C0,18.1321404 0.123784996,17.8395623 0.343120721,17.62675 L3.69512072,14.34475 C4.156728,13.8970402 4.89051344,13.8970402 5.35212072,14.34475 L16.0801207,24.84875 C16.1951207,24.96075 16.3801207,24.96075 16.4951207,24.84875 L27.2221207,14.34475 C27.683728,13.8970402 28.4175134,13.8970402 28.8791207,14.34475 L39.6071207,24.84875 C39.7221207,24.96075 39.9071207,24.96075 40.0221207,24.84875 L50.7501207,14.34475 C51.2116018,13.8976864 51.9446397,13.8976864 52.4061207,14.34475 L52.4061207,14.34475 Z" transform="translate(0.004913, 0.003082)"/></g></svg>