<?xml version="1.0" encoding="UTF-8"?>
<svg width="512px" height="512px" viewBox="0 0 512 512" version="1.1" xmlns="http://www.w3.org/2000/svg" xmlns:xlink="http://www.w3.org/1999/xlink">
    <title>icons/networks/80001</title>
    <g id="icons/networks/80001" stroke="none" stroke-width="1" fill="none" fill-rule="evenodd">
        <circle id="Oval" fill="#8247E5" cx="255.5" cy="255.5" r="254.5"></circle>
        <g id="polygon-matic-logo" transform="translate(81.000000, 102.000000)" fill="#FFFFFF" fill-rule="nonzero">
            <path d="M265.013055,94.1830086 C258.616188,90.5254161 250.391645,90.5254161 243.08094,94.1830086 L191.906005,124.358147 L157.180157,143.560508 L106.91906,173.735647 C100.522193,177.39324 92.2976501,177.39324 84.9869452,173.735647 L45.691906,149.961295 C39.2950392,146.303703 34.7258486,138.988518 34.7258486,130.758934 L34.7258486,85.0390272 C34.7258486,77.7238421 38.381201,70.4086569 45.691906,65.8366662 L84.9869452,42.9767127 C91.383812,39.3191201 99.6083551,39.3191201 106.91906,42.9767127 L146.214099,66.7510644 C152.610966,70.4086569 157.180157,77.7238421 157.180157,85.9534254 L157.180157,116.128564 L191.906005,96.0118049 L191.906005,64.9222681 C191.906005,57.607083 188.250653,50.2918978 180.939948,45.7199071 L107.832898,2.74319443 C101.436031,-0.914398142 93.2114883,-0.914398142 85.9007833,2.74319443 L10.9660574,46.6343053 C3.65535248,50.2918978 0,57.607083 0,64.9222681 L0,150.875693 C0,158.190879 3.65535248,165.506064 10.9660574,170.078054 L84.9869452,213.054767 C91.383812,216.71236 99.6083551,216.71236 106.91906,213.054767 L157.180157,183.794027 L191.906005,163.677267 L242.167102,134.416527 C248.563969,130.758934 256.788512,130.758934 264.099217,134.416527 L303.394256,157.27648 C309.791123,160.934073 314.360313,168.249258 314.360313,176.478841 L314.360313,222.198749 C314.360313,229.513934 310.704961,236.829119 303.394256,241.40111 L265.013055,264.261063 C258.616188,267.918656 250.391645,267.918656 243.08094,264.261063 L203.785901,241.40111 C197.389034,237.743517 192.819843,230.428332 192.819843,222.198749 L192.819843,192.938008 L158.093995,213.054767 L158.093995,243.229906 C158.093995,250.545091 161.749347,257.860276 169.060052,262.432267 L243.08094,305.408979 C249.477807,309.066572 257.70235,309.066572 265.013055,305.408979 L339.033943,262.432267 C345.430809,258.774674 350,251.459489 350,243.229906 L350,156.362082 C350,149.046897 346.344648,141.731712 339.033943,137.159721 L265.013055,94.1830086 Z" id="Path"></path>
        </g>
    </g>
</svg>